<?xml version="1.0" encoding="utf-8"?>
<!-- Generator: Adobe Illustrator 21.0.0, SVG Export Plug-In . SVG Version: 6.00 Build 0)  -->
<svg version="1.1" id="Layer_1" xmlns="http://www.w3.org/2000/svg" xmlns:xlink="http://www.w3.org/1999/xlink" x="0px" y="0px"
	 viewBox="0 0 52.2 44.3" style="enable-background:new 0 0 52.2 44.3;" xml:space="preserve">
<style type="text/css">
	.st0{fill:#3865F2;}
</style>
<path class="st0" d="M34.8,5.7H17.4c-4.5,0-8.7,1.9-11.6,4.8c-3,3-4.8,7.1-4.8,11.6c0,9.1,7.4,16.5,16.5,16.5h17.4
	c4.6,0,8.7-1.9,11.7-4.8c3-3,4.8-7.1,4.8-11.6C51.3,13.1,43.9,5.7,34.8,5.7z M34.3,34.9c-7,0-12.7-5.7-12.7-12.7S27.3,9.4,34.3,9.4
	S47,15.1,47,22.1S41.4,34.9,34.3,34.9z"/>
</svg>
