<?xml version="1.0" encoding="utf-8"?>
<!-- Generator: Adobe Illustrator 21.0.0, SVG Export Plug-In . SVG Version: 6.00 Build 0)  -->
<svg version="1.1" id="Layer_1" xmlns="http://www.w3.org/2000/svg" xmlns:xlink="http://www.w3.org/1999/xlink" x="0px" y="0px"
	 viewBox="0 0 230 95" style="enable-background:new 0 0 230 95;" xml:space="preserve">
<style type="text/css">
	.st0{fill:url(#SVGID_1_);}
	.st1{fill:url(#SVGID_2_);}
	.st2{fill:url(#SVGID_3_);}
	.st3{fill:url(#SVGID_4_);}
</style>
<g>
	
		<linearGradient id="SVGID_1_" gradientUnits="userSpaceOnUse" x1="48.7162" y1="81.4069" x2="48.7162" y2="37.5342" gradientTransform="matrix(1 0 0 -1 0 96)">
		<stop  offset="0" style="stop-color:#2BDBDC"/>
		<stop  offset="1" style="stop-color:#0067F4"/>
	</linearGradient>
	<path class="st0" d="M48.7,58.5V42.4c0-1.6-0.6-3-1.7-4.1c-1.1-1.1-2.6-1.7-4.1-1.7H26.8c0-5.1,1.8-10,5-13.9
		c3.2-3.9,7.7-6.6,12.6-7.6c5-1,10.1-0.3,14.6,2.1c4.5,2.4,8,6.2,10,10.9c1.4,3.3,2,7,1.6,10.6c-0.3,3.6-1.6,7.1-3.6,10.1
		c-2,3-4.7,5.5-7.9,7.2S52.3,58.5,48.7,58.5L48.7,58.5z"/>
	
		<linearGradient id="SVGID_2_" gradientUnits="userSpaceOnUse" x1="26.7706" y1="59.4752" x2="26.7706" y2="15.5931" gradientTransform="matrix(1 0 0 -1 0 96)">
		<stop  offset="0" style="stop-color:#2BDBDC"/>
		<stop  offset="1" style="stop-color:#0067F4"/>
	</linearGradient>
	<path class="st1" d="M42.9,36.5H10.7c-3.2,0-5.9,2.6-5.9,5.9v32.2c0,3.2,2.6,5.9,5.9,5.9h32.2c3.2,0,5.9-2.6,5.9-5.9V42.4
		C48.7,39.1,46.1,36.5,42.9,36.5z"/>
	
		<linearGradient id="SVGID_3_" gradientUnits="userSpaceOnUse" x1="37.7411" y1="37.5342" x2="37.7411" y2="15.5931" gradientTransform="matrix(1 0 0 -1 0 96)">
		<stop  offset="0" style="stop-color:#2BDBDC"/>
		<stop  offset="1" style="stop-color:#0067F4"/>
	</linearGradient>
	<path class="st2" d="M26.8,80.4c0-5.8,2.3-11.4,6.4-15.5c4.1-4.1,9.7-6.4,15.5-6.4v16.1c0,1.6-0.6,3-1.7,4.1
		c-1.1,1.1-2.6,1.7-4.1,1.7H26.8z"/>
	
		<linearGradient id="SVGID_4_" gradientUnits="userSpaceOnUse" x1="15.8" y1="59.4752" x2="15.8" y2="37.5342" gradientTransform="matrix(1 0 0 -1 0 96)">
		<stop  offset="0" style="stop-color:#2BDBDC"/>
		<stop  offset="1" style="stop-color:#0067F4"/>
	</linearGradient>
	<path class="st3" d="M4.8,58.5V42.4c0-1.6,0.6-3,1.7-4.1c1.1-1.1,2.6-1.7,4.1-1.7h16.1c0,5.8-2.3,11.4-6.4,15.5
		C16.2,56.2,10.6,58.5,4.8,58.5L4.8,58.5z"/>
	<path d="M98.7,68.1h7.6L95.6,38.6h-8.3L76.6,68.1h7.5l1.8-5.2h11L98.7,68.1z M95.1,57.3h-7.3l3.6-10.8L95.1,57.3z M120.4,59.3
		L115,44.6h-8l9.6,22.7l-5.4,12h7.8l14.7-34.7h-7.8L120.4,59.3z M143.4,57.2c0-4,2-5.2,5.4-5.2h2v-7.6c-3.2,0-5.7,1.7-7.4,4.2v-3.9
		h-7.2v23.5h7.2V57.2z M177.2,56.4c0-7.5-5.3-12.1-12.2-12.1c-6.9,0-12.2,4.6-12.2,12.1s5.2,12.1,12.1,12.1S177.2,63.8,177.2,56.4z
		 M160.1,56.4c0-4,2.3-5.9,4.9-5.9c2.5,0,4.9,1.9,4.9,5.9c0,4-2.4,5.9-5,5.9C162.3,62.2,160.1,60.3,160.1,56.4z M192.8,57.3
		c0,7.6,5,11.1,11,11.1c6.1,0,11.1-3.5,11.1-11.1V38.8h-3.8v18.6c0,5.4-2.9,7.7-7.2,7.7c-4.3,0-7.2-2.3-7.2-7.7V38.8h-3.8V57.3z
		 M221.3,68.1h3.8V38.8h-3.8V68.1z"/>
</g>
</svg>
